#!OML:ASF G:\JayActor3\Patient Classification 1\Patient 1\Session 5\male.ASF
:FULLY-SPECIFIED
:DEGREES
424
root -28.5213 14.3567 -5.22121 -167.911 84.5642 -179.017
lowerback 34.877 -2.12205 1.37278
upperback 7.59507 -1.30419 -0.544992
thorax -9.28782 -0.235815 -0.871715
lowerneck -5.34832 -0.943565 1.72442
upperneck -12.8721 -0.650276 2.84983
head -3.20756 -0.312411 0.627248
rclavicle 1.71949e-014 4.48259e-014
rhumerus -20.5197 3.80972 -85.0925
rradius 44.2467
rwrist -6.04226
rhand -21.2297 -8.50794
rfingers 7.12502
rthumb 5.15255 -38.4253
lclavicle 1.71949e-014 4.48259e-014
lhumerus -23.7969 -6.44524 81.7845
lradius 39.5439
lwrist 22.3079
lhand -17.3606 13.2477
lfingers 7.12502
lthumb 8.88734 43.0405
rfemur -52.0379 -4.77178 29.586
rtibia 84.8181
rfoot -35.8569 -7.71435
rtoes -1.73732
lfemur -69.3935 4.57925 -27.58
ltibia 49.2337
lfoot -14.5159 6.43817
ltoes -17.6019
425
root -28.4229 14.3414 -5.23372 -168.21 84.7342 -179.354
lowerback 34.8851 -2.08747 1.31845
upperback 7.60025 -1.28566 -0.58684
thorax -9.28472 -0.226539 -0.894162
lowerneck -5.32135 -0.933214 1.6742
upperneck -12.8776 -0.628869 2.90887
head -3.21423 -0.301647 0.654985
rclavicle 2.00773e-014 9.64106e-015
rhumerus -20.5401 3.89784 -85.1423
rradius 44.3615
rwrist -6.0654
rhand -21.1807 -8.59716
rfingers 7.12502
rthumb 5.19988 -38.5134
lclavicle 2.00773e-014 9.64106e-015
lhumerus -23.7632 -6.49436 81.7536
lradius 39.5529
lwrist 22.1815
lhand -17.333 13.1154
lfingers 7.12502
lthumb 8.91403 42.9071
rfemur -51.9263 -5.03953 29.5175
rtibia 85.3002
rfoot -35.7449 -7.36725
rtoes -2.57515
lfemur -69.1662 4.39277 -27.469
ltibia 48.1093
lfoot -14.2284 6.43034
ltoes -17.699
426
root -28.3247 14.325 -5.24698 -168.557 84.9092 -179.732
lowerback 34.9082 -2.05209 1.26477
upperback 7.6044 -1.2657 -0.632173
thorax -9.28843 -0.216443 -0.921062
lowerneck -5.30253 -0.921827 1.63024
upperneck -12.8765 -0.607163 2.963
head -3.21717 -0.290742 0.679962
rclavicle -8.34896e-015 -1.64991e-014
rhumerus -20.5675 3.98405 -85.1915
rradius 44.4767
rwrist -6.08643
rhand -21.1392 -8.68298
rfingers 7.12502
rthumb 5.23994 -38.5982
lclavicle -8.34896e-015 -1.64991e-014
lhumerus -23.7279 -6.55388 81.7158
lradius 39.5752
lwrist 22.0512
lhand -17.3288 12.985
lfingers 7.12502
lthumb 8.91803 42.7765
rfemur -51.8165 -5.30057 29.4292
rtibia 85.7958
rfoot -35.6045 -7.00503
rtoes -3.45289
lfemur -69.016 4.2091 -27.3178
ltibia 47.4098
lfoot -13.773 6.41297
ltoes -17.8322
427
root -28.2263 14.3081 -5.26108 -168.909 85.0941 -180.105
lowerback 34.9459 -2.01432 1.21373
upperback 7.60911 -1.24147 -0.680329
thorax -9.29688 -0.204185 -0.953897
lowerneck -5.29074 -0.910219 1.59414
upperneck -12.8697 -0.586584 3.00886
head -3.21694 -0.280413 0.700838
rclavicle -5.96354e-016 -1.55052e-014
rhumerus -20.5983 4.06492 -85.2403
rradius 44.5887
rwrist -6.1045
rhand -21.1045 -8.76818
rfingers 7.12502
rthumb 5.27345 -38.6826
lclavicle -5.96354e-016 -1.55052e-014
lhumerus -23.6932 -6.61982 81.6697
lradius 39.6112
lwrist 21.9232
lhand -17.3427 12.8642
lfingers 7.12502
lthumb 8.90465 42.6563
rfemur -51.6921 -5.55129 29.3244
rtibia 86.2926
rfoot -35.4514 -6.62295
rtoes -4.33768
lfemur -68.9561 4.0443 -27.1408
ltibia 47.1942
lfoot -13.2108 6.39448
ltoes -17.7781
428
root -28.1265 14.291 -5.27662 -169.21 85.3124 -180.408
lowerback 34.9976 -1.96757 1.16269
upperback 7.61802 -1.2058 -0.733458
thorax -9.30567 -0.186316 -0.996331
lowerneck -5.28796 -0.897144 1.5604
upperneck -12.8584 -0.564946 3.04929
head -3.21356 -0.269344 0.719437
rclavicle 1.51076e-014 -1.09332e-014
rhumerus -20.6326 4.14678 -85.2895
rradius 44.6987
rwrist -6.12002
rhand -21.0776 -8.85253
rfingers 7.12502
rthumb 5.29941 -38.7663
lclavicle 1.51076e-014 -1.09332e-014
lhumerus -23.6531 -6.67924 81.6121
lradius 39.6488
lwrist 21.8076
lhand -17.3544 12.7225
lfingers 7.12502
lthumb 8.89339 42.5151
rfemur -51.5291 -5.76775 29.2004
rtibia 86.7781
rfoot -35.3021 -6.21833
rtoes -5.20855
lfemur -68.9902 3.94282 -26.9692
ltibia 47.4887
lfoot -12.6583 6.38568
ltoes -17.4463
429
root -28.0261 14.2725 -5.29291 -169.552 85.5364 -180.748
lowerback 35.1431 -1.92031 1.1102
upperback 7.54401 -1.16854 -0.786974
thorax -9.31921 -0.167468 -1.04002
lowerneck -5.28346 -0.883915 1.53084
upperneck -12.8511 -0.543616 3.0827
head -3.21194 -0.258437 0.735091
rclavicle 4.65156e-014 1.25234e-014
rhumerus -20.6665 4.22388 -85.3374
rradius 44.8007
rwrist -6.13375
rhand -21.0523 -8.92863
rfingers 7.12502
rthumb 5.32389 -38.8418
lclavicle 4.65156e-014 1.25234e-014
lhumerus -23.6129 -6.73377 81.5459
lradius 39.6925
lwrist 21.7084
lhand -17.3586 12.5823
lfingers 7.12502
lthumb 8.88932 42.3751
rfemur -51.3455 -5.96636 29.0571
rtibia 87.2546
rfoot -35.1672 -5.79802
rtoes -6.05087
lfemur -69.1327 3.90095 -26.8414
ltibia 48.2587
lfoot -12.2281 6.39887
ltoes -16.8737
